<svg width="40" height="31" viewBox="0 0 40 31" fill="none" xmlns="http://www.w3.org/2000/svg">
<path d="M0.532736 16.4798C0.364292 16.3219 0.230843 16.1347 0.140009 15.9287C0.0475991 15.7236 0 15.5034 0 15.281C0 15.0586 0.0475991 14.8384 0.140009 14.6333C0.230843 14.4273 0.364292 14.2401 0.532736 14.0822L15.0782 0.517639C15.2459 0.355694 15.4465 0.226522 15.6684 0.137658C15.8902 0.048795 16.1288 0.0020204 16.3702 6.40193e-05C16.6116 -0.00189236 16.851 0.0410086 17.0745 0.126264C17.2979 0.211518 17.5009 0.33742 17.6716 0.496622C17.8423 0.655824 17.9774 0.845138 18.0688 1.05352C18.1602 1.2619 18.2062 1.48517 18.2041 1.71031C18.202 1.93544 18.1518 2.15794 18.0566 2.3648C17.9613 2.57167 17.8228 2.75877 17.6491 2.91518L6.20728 13.5854H38.1818C38.664 13.5854 39.1265 13.7641 39.4675 14.082C39.8084 14.4 40 14.8313 40 15.281C40 15.7307 39.8084 16.162 39.4675 16.4799C39.1265 16.7979 38.664 16.9766 38.1818 16.9766H6.20728L17.6491 27.6468C17.9803 27.9666 18.1636 28.3949 18.1594 28.8395C18.1553 29.2841 17.9641 29.7093 17.6269 30.0237C17.2898 30.3381 16.8338 30.5164 16.3571 30.5203C15.8804 30.5241 15.4211 30.3532 15.0782 30.0444L0.532736 16.4798Z" fill="#EFF5F5"/>
</svg>
