<svg width="24" height="29" viewBox="0 0 24 29" fill="none" xmlns="http://www.w3.org/2000/svg">
<path d="M20.25 17.125L22.2929 15.0821C22.6834 14.6916 22.6834 14.0584 22.2929 13.6679L20.25 11.625" stroke="#EFF5F5" stroke-width="2" stroke-linecap="round" stroke-linejoin="round"/>
<path d="M21.625 14.375L13.375 14.375M1 21.6162V7.8662M17.5 21.6162C17.5 23.135 16.2688 24.3662 14.75 24.3662H9.25M17.5 7.8662C17.5 6.34742 16.2688 5.1162 14.75 5.1162H9.25M2.22457 25.1826L4.97458 27.0159C6.8021 28.2343 9.25 26.9242 9.25 24.7278V4.75462C9.25 2.55821 6.8021 1.24814 4.97458 2.46649L2.22457 4.29982C1.45953 4.80985 1 5.66849 1 6.58796V22.8944C1 23.8139 1.45953 24.6726 2.22457 25.1826Z" stroke="#EFF5F5" stroke-width="2" stroke-linecap="round"/>
</svg>
