<svg width="1747" height="2048" viewBox="0 0 1747 2048" fill="none" xmlns="http://www.w3.org/2000/svg">
<path d="M1280 576C1280 611.346 1251.35 640 1216 640H832C796.654 640 768 611.346 768 576V576C768 540.654 796.654 512 832 512H1216C1251.35 512 1280 540.654 1280 576V576ZM768 1088C768 1052.65 796.654 1024 832 1024H1216C1251.35 1024 1280 1052.65 1280 1088V1088C1280 1123.35 1251.35 1152 1216 1152H832C796.654 1152 768 1123.35 768 1088V1088ZM872.49 1920C889.464 1920 905.743 1926.74 917.745 1938.75V1938.75C958.063 1979.06 929.508 2048 872.49 2048H89C39.8466 2048 0 2008.15 0 1959V89C0 39.8467 39.8467 0 89 0H1447C1496.15 0 1536 39.8467 1536 89V1256.49C1536 1273.46 1529.26 1289.74 1517.25 1301.75V1301.75C1476.94 1342.06 1408 1313.51 1408 1256.49V217C1408 167.847 1368.15 128 1319 128H217C167.847 128 128 167.847 128 217V1831C128 1880.15 167.847 1920 217 1920H872.49ZM640 384C664.853 408.853 664.853 449.147 640 474L510.932 603.068C476.176 637.824 419.824 637.824 385.067 603.067L320 538C295.147 513.147 295.147 472.853 320 448L323.5 444.5C346.42 421.58 383.58 421.58 406.5 444.5V444.5C429.42 467.42 466.58 467.42 489.5 444.5L550 384C574.853 359.147 615.147 359.147 640 384V384ZM640 896C664.853 920.853 664.853 961.147 640 986L510.932 1115.07C476.176 1149.82 419.824 1149.82 385.067 1115.07L320 1050C295.147 1025.15 295.147 984.853 320 960L323.5 956.5C346.42 933.58 383.58 933.58 406.5 956.5V956.5C429.42 979.42 466.58 979.42 489.5 956.5L550 896C574.853 871.147 615.147 871.147 640 896V896ZM406.5 1468.5C429.42 1491.42 466.58 1491.42 489.5 1468.5L550 1408C574.853 1383.15 615.147 1383.15 640 1408V1408C664.853 1432.85 664.853 1473.15 640 1498L510.932 1627.07C476.176 1661.82 419.824 1661.82 385.067 1627.07L320 1562C295.147 1537.15 295.147 1496.85 320 1472L323.5 1468.5C346.42 1445.58 383.58 1445.58 406.5 1468.5V1468.5ZM1728 1408C1752.86 1432.86 1752.88 1473.16 1728.04 1498.04L1279.05 1947.84C1244.26 1982.69 1187.77 1982.67 1153.01 1947.78L991.938 1786.1C967.106 1761.18 967.143 1720.86 992.021 1695.98V1695.98C1016.88 1671.12 1057.17 1671.06 1082.1 1695.85L1153.14 1766.49C1187.89 1801.05 1244.06 1801 1278.76 1766.38L1637.96 1407.95C1662.84 1383.12 1703.14 1383.14 1728 1408V1408Z" fill="white"/>
</svg>
