<svg width="2478" height="2950" viewBox="0 0 2478 2950" fill="none" xmlns="http://www.w3.org/2000/svg">
<mask id="path-1-outside-1_150_63" maskUnits="userSpaceOnUse" x="0" y="0" width="2478" height="2950" fill="black">
<rect fill="white" width="2478" height="2950"/>
<path fill-rule="evenodd" clip-rule="evenodd" d="M619.331 2869.55C763.404 2881.9 860.24 2876.13 982.941 2799.62C1144.25 2699.03 1035.49 2533.36 919.235 2356.28C805.839 2183.56 685.312 1999.97 801.324 1855.32C907.085 1723.44 1049.64 1734.72 1200.77 1749.78C1170.37 1821.5 1162.55 1897.97 1195.19 1982.97C1358.13 2407.27 2008.25 2769.99 2282.93 2409.39C2360.59 2307.45 2402.17 2232.25 2402.64 2104.05C2403.26 1935.51 2226.68 1938.13 2037.93 1940.93C1853.83 1943.66 1658.15 1946.57 1604.04 1790.98C1594.14 1762.52 1589.29 1735.69 1588.54 1710.14C1593.89 1707.19 1599.22 1704.1 1604.52 1700.84C1921.77 1505.88 2163.54 1282.98 2139.28 911.4C2111.31 483.195 1725.21 307.023 1313.31 186.7C867.904 56.5903 200.351 -49.7713 146.5 411.112C145.016 423.819 143.798 436.135 142.859 448.117C15.421 867.027 71.5593 2484.74 276.982 2650.15C281.074 2653.44 285.13 2656.66 289.155 2659.79C361.52 2776.83 470.644 2856.81 619.331 2869.55ZM574.271 1459.82C572.101 1143.8 631.784 840.699 844.959 642.82C1041.33 516.106 1239.95 413.548 1384.28 555.737C1611.83 779.901 1666.93 1066.36 1538.76 1358.94C1443.73 1575.87 1214.32 1533.15 975.409 1488.66C836.755 1462.84 694.904 1436.42 574.271 1459.82Z"/>
</mask>
<path d="M982.941 2799.62L1022.55 2863.14L1022.55 2863.14L982.941 2799.62ZM619.331 2869.55L625.724 2794.96L625.724 2794.96L619.331 2869.55ZM919.235 2356.28L856.653 2397.37L856.653 2397.37L919.235 2356.28ZM801.324 1855.32L742.922 1808.48L742.922 1808.48L801.324 1855.32ZM1200.77 1749.78L1269.69 1779L1309.37 1685.37L1208.19 1675.29L1200.77 1749.78ZM1195.19 1982.97L1265.07 1956.13L1265.07 1956.13L1195.19 1982.97ZM2282.93 2409.39L2223.38 2364.03L2223.38 2364.03L2282.93 2409.39ZM2402.64 2104.05L2477.5 2104.32L2477.5 2104.32L2402.64 2104.05ZM2037.93 1940.93L2036.82 1866.08L2036.82 1866.08L2037.93 1940.93ZM1604.04 1790.98L1674.75 1766.38L1674.75 1766.38L1604.04 1790.98ZM1588.54 1710.14L1552.47 1644.53L1512.36 1666.59L1513.71 1712.35L1588.54 1710.14ZM1604.52 1700.84L1565.33 1637.05L1565.33 1637.05L1604.52 1700.84ZM2139.28 911.4L2064.57 916.279L2064.57 916.279L2139.28 911.4ZM1313.31 186.7L1292.32 258.56L1292.32 258.56L1313.31 186.7ZM146.5 411.112L220.858 419.8L220.858 419.8L146.5 411.112ZM142.859 448.117L214.482 469.906L216.856 462.101L217.493 453.969L142.859 448.117ZM276.982 2650.15L230.029 2708.46L230.029 2708.46L276.982 2650.15ZM289.155 2659.79L352.831 2620.42L345.755 2608.97L335.137 2600.71L289.155 2659.79ZM574.271 1459.82L499.409 1460.33L500.028 1550.48L588.528 1533.31L574.271 1459.82ZM844.959 642.82L804.368 579.916L798.845 583.48L794.028 587.952L844.959 642.82ZM1384.28 555.737L1331.75 609.068L1331.75 609.068L1384.28 555.737ZM1538.76 1358.94L1607.34 1388.97L1607.34 1388.97L1538.76 1358.94ZM975.409 1488.66L961.703 1562.26L961.703 1562.26L975.409 1488.66ZM943.328 2736.09C889.443 2769.69 843.798 2786.34 797.005 2794.03C748.822 2801.96 696.058 2800.99 625.724 2794.96L612.938 2944.14C686.677 2950.46 754.367 2952.78 821.296 2941.78C889.615 2930.55 953.738 2906.05 1022.55 2863.14L943.328 2736.09ZM856.653 2397.37C917.132 2489.49 965.425 2564.46 983.145 2627.03C991.439 2656.32 990.747 2675.82 986.273 2689.42C982.195 2701.82 972.122 2718.14 943.328 2736.09L1022.55 2863.14C1074.42 2830.8 1111.24 2788.69 1128.5 2736.2C1145.37 2684.92 1140.47 2633.07 1127.21 2586.24C1101.81 2496.56 1037.59 2400.15 981.817 2315.2L856.653 2397.37ZM742.922 1808.48C662.891 1908.27 668.915 2020.45 703.554 2119.9C737.013 2215.96 801.403 2313.21 856.653 2397.37L981.817 2315.2C923.671 2226.63 871.099 2145.72 844.949 2070.65C819.978 1998.95 823.745 1947.02 859.725 1902.15L742.922 1808.48ZM1208.19 1675.29C1062.41 1660.76 877.107 1641.16 742.922 1808.48L859.725 1902.15C937.064 1805.72 1036.87 1808.69 1193.34 1824.28L1208.19 1675.29ZM1131.84 1720.57C1095.01 1807.46 1084.73 1904.17 1125.3 2009.8L1265.07 1956.13C1240.36 1891.78 1245.73 1835.53 1269.69 1779L1131.84 1720.57ZM1125.3 2009.8C1214.95 2243.26 1434.17 2453.32 1666.21 2558.68C1896.44 2663.23 2173.61 2676.45 2342.49 2454.76L2223.38 2364.03C2117.57 2502.93 1932.35 2515.09 1728.11 2422.35C1525.68 2330.43 1338.36 2146.97 1265.07 1956.13L1125.3 2009.8ZM2342.49 2454.76C2382.35 2402.42 2416.77 2352.16 2440.66 2295.78C2465.11 2238.09 2477.23 2177.27 2477.5 2104.32L2327.77 2103.77C2327.57 2159.03 2318.67 2199.9 2302.8 2237.35C2286.37 2276.12 2261.17 2314.42 2223.38 2364.03L2342.49 2454.76ZM2477.5 2104.32C2477.71 2048.49 2462.93 1998.89 2430.08 1959.27C2398.07 1920.68 2355.08 1899.06 2312.58 1886.46C2231.5 1862.42 2126.95 1864.74 2036.82 1866.08L2039.04 2015.79C2137.66 2014.32 2215.77 2013.93 2270.02 2030.01C2295.18 2037.47 2308.01 2046.63 2314.83 2054.86C2320.81 2062.07 2327.88 2075.34 2327.77 2103.77L2477.5 2104.32ZM2036.82 1866.08C1942.15 1867.48 1857.21 1868.29 1789.27 1852.42C1724.7 1837.34 1690.27 1811.01 1674.75 1766.38L1533.33 1815.57C1571.92 1926.54 1662.38 1976.54 1755.21 1998.23C1844.66 2019.12 1949.61 2017.11 2039.04 2015.79L2036.82 1866.08ZM1674.75 1766.38C1667.2 1744.68 1663.89 1725.39 1663.37 1707.92L1513.71 1712.35C1514.7 1745.99 1521.08 1780.35 1533.33 1815.57L1674.75 1766.38ZM1565.33 1637.05C1561.05 1639.68 1556.76 1642.17 1552.47 1644.53L1624.61 1775.74C1631.01 1772.22 1637.38 1768.51 1643.72 1764.62L1565.33 1637.05ZM2064.57 916.279C2085.89 1242.69 1878.99 1444.3 1565.33 1637.05L1643.72 1764.62C1964.56 1567.46 2241.2 1323.27 2213.98 906.522L2064.57 916.279ZM1292.32 258.56C1496.6 318.235 1685.31 389.403 1825.61 493.679C1962.82 595.663 2052.27 727.926 2064.57 916.279L2213.98 906.522C2198.32 666.669 2080.73 496.743 1914.93 373.509C1752.21 252.567 1541.92 175.487 1334.3 114.839L1292.32 258.56ZM220.858 419.8C231.914 325.18 272.668 265.164 331.196 225.085C392.817 182.887 480.12 158.928 587.88 151.993C803.741 138.101 1071.72 194.121 1292.32 258.56L1334.3 114.839C1109.49 49.1692 820.993 -13.0466 578.264 2.57428C456.728 10.3957 339.208 38.1294 246.599 101.547C150.897 167.082 88.0122 266.602 72.1426 402.424L220.858 419.8ZM217.493 453.969C218.351 443.025 219.473 431.658 220.858 419.8L72.1426 402.424C70.5586 415.98 69.2447 429.246 68.2239 442.265L217.493 453.969ZM71.2357 426.328C36.3917 540.867 15.8389 728.821 6.37473 942.336C-3.19031 1158.13 -1.66617 1407.15 10.3266 1647.92C22.3061 1888.42 44.8247 2122.61 77.7263 2308.27C94.1449 2400.92 113.502 2483.54 136.221 2549.57C157.529 2611.51 186.386 2673.32 230.029 2708.46L323.934 2591.84C316.221 2585.63 298.388 2560.7 277.804 2500.87C258.632 2445.14 240.897 2370.96 225.157 2282.14C193.74 2104.87 171.672 1877.43 159.869 1640.47C148.079 1403.77 146.624 1159.48 155.955 948.966C165.388 736.173 185.607 564.822 214.482 469.906L71.2357 426.328ZM230.029 2708.46C234.426 2712 238.806 2715.47 243.173 2718.87L335.137 2600.71C331.454 2597.84 327.721 2594.89 323.934 2591.84L230.029 2708.46ZM625.724 2794.96C504.051 2784.53 414.67 2720.44 352.831 2620.42L225.478 2699.16C308.369 2833.23 437.238 2929.08 612.938 2944.14L625.724 2794.96ZM649.133 1459.31C647.005 1149.3 706.431 873.554 895.891 697.689L794.028 587.952C557.137 807.844 497.198 1138.29 499.409 1460.33L649.133 1459.31ZM1436.82 502.405C1340.89 407.896 1225.47 397.671 1115.5 425.932C1010.26 452.978 902.425 516.642 804.368 579.916L885.55 705.725C983.866 642.284 1073.53 591.312 1152.77 570.948C1227.28 551.799 1283.35 561.389 1331.75 609.068L1436.82 502.405ZM1607.34 1388.97C1747.95 1067.97 1686.48 748.349 1436.82 502.405L1331.75 609.068C1537.18 811.452 1585.9 1064.75 1470.19 1328.9L1607.34 1388.97ZM961.703 1562.26C1077.76 1583.87 1206.82 1608.58 1319.21 1596.25C1377.19 1589.89 1434.66 1573.44 1485.85 1539.22C1537.62 1504.61 1578.5 1454.8 1607.34 1388.97L1470.19 1328.9C1451.51 1371.54 1428.07 1397.74 1402.64 1414.74C1376.62 1432.14 1343.99 1442.9 1302.87 1447.42C1217.07 1456.83 1111.96 1437.94 989.116 1415.06L961.703 1562.26ZM588.528 1533.31C692.358 1513.17 818.907 1535.66 961.703 1562.26L989.116 1415.06C854.603 1390.01 697.45 1359.66 560.014 1386.33L588.528 1533.31Z" fill="black" mask="url(#path-1-outside-1_150_63)"/>
<g clip-path="url(#clip0_150_63)">
<path d="M594.99 2800.48C462.494 2791.28 381.603 2759.57 278.156 2676.27C54.7818 2496.4 5.2846 624.984 172.448 369.509L1099.92 144.872L1156.02 466.569C0.292001 842.463 1013.91 2829.56 594.99 2800.48Z" fill="#EB6440"/>
<path d="M2436.07 2121.88C2435.59 2252.02 2393.39 2328.37 2314.55 2431.86C2035.7 2797.93 1375.71 2429.7 1210.3 1998.96C1162.17 1873.63 1200.71 1766.54 1270.25 1666.01L1648.48 1576.24C1611.62 1643.81 1594.83 1716.29 1625.35 1804.06C1736.6 2123.94 2437.32 1783.9 2436.07 2121.88Z" fill="#EB6440"/>
<path d="M994.831 2828.01C870.268 2905.68 771.961 2911.54 625.702 2899C108.337 2854.66 62.7986 2008.53 374.573 1593.28C657.405 1216.58 1370.08 1796.94 1559.09 1365.46C1689.2 1068.44 1633.27 777.639 1402.27 550.073C1066.69 219.487 442.07 1192.11 217.749 777.891C146.801 646.882 128.405 551.233 145.695 403.253C200.363 -64.6246 878.048 43.3512 1330.21 175.435C1748.37 297.584 2140.33 476.43 2168.72 911.134C2193.35 1288.35 1947.91 1514.64 1625.85 1712.55C1349.57 1882.32 1013.33 1616.41 810.457 1869.38C571.942 2166.78 1318.32 2626.29 994.831 2828.01Z" fill="#497174"/>
</g>
<defs>
<clipPath id="clip0_150_63">
<rect width="2420" height="2896.44" fill="white" transform="translate(50 41)"/>
</clipPath>
</defs>
</svg>
