<svg width="1832" height="1911" viewBox="0 0 1832 1911" fill="none" xmlns="http://www.w3.org/2000/svg">
<rect width="1832" height="1911" rx="184" fill="white"/>
<g clip-path="url(#clip0_127_90)">
<path d="M564.259 1649.56C494.179 1644.69 451.393 1627.92 396.678 1583.86C278.529 1488.73 252.349 498.885 340.766 363.758L831.33 244.941L861.005 415.095C249.708 613.915 785.837 1664.94 564.259 1649.56Z" fill="#F25B5B"/>
<path d="M1538.06 1290.63C1537.8 1359.47 1515.48 1399.85 1473.78 1454.59C1326.29 1648.21 977.206 1453.44 889.713 1225.62C864.255 1159.32 884.641 1102.68 921.421 1049.51L1121.48 1002.03C1101.98 1037.77 1093.1 1076.11 1109.25 1122.53C1168.09 1291.72 1538.72 1111.86 1538.06 1290.63Z" fill="#F25B5B"/>
<path d="M775.741 1664.12C709.856 1705.2 657.86 1708.3 580.499 1701.67C306.852 1678.22 282.765 1230.67 447.67 1011.04C597.268 811.792 974.22 1118.76 1074.19 890.54C1143.01 733.44 1113.43 579.626 991.244 459.26C813.749 284.405 483.372 798.851 364.722 579.759C327.196 510.465 317.466 459.874 326.611 381.604C355.526 134.131 713.972 191.242 953.132 261.105C1174.31 325.713 1381.62 420.309 1396.64 650.235C1409.67 849.754 1279.85 969.445 1109.5 1074.13C963.373 1163.92 785.527 1023.28 678.221 1157.07C552.064 1314.38 946.843 1557.42 775.741 1664.12Z" fill="#464646"/>
</g>
<defs>
<clipPath id="clip0_127_90">
<rect width="1280" height="1532" fill="white" transform="translate(276 190)"/>
</clipPath>
</defs>
</svg>
