<svg width="2420" height="2897" viewBox="0 0 2420 2897" fill="none" xmlns="http://www.w3.org/2000/svg">
<g clip-path="url(#clip0_150_34)">
<path d="M544.99 2759.48C412.494 2750.28 331.603 2718.57 228.156 2635.27C4.78183 2455.4 -44.7154 583.984 122.448 328.509L1049.92 103.872L1106.02 425.569C-49.708 801.463 963.91 2788.56 544.99 2759.48Z" fill="#EB6440"/>
<path d="M2386.07 2080.88C2385.59 2211.02 2343.39 2287.37 2264.55 2390.86C1985.7 2756.93 1325.71 2388.7 1160.3 1957.96C1112.17 1832.63 1150.71 1725.54 1220.25 1625.01L1598.48 1535.24C1561.62 1602.81 1544.83 1675.29 1575.35 1763.06C1686.6 2082.94 2387.32 1742.9 2386.07 2080.88Z" fill="#EB6440"/>
<path d="M944.831 2787.01C820.268 2864.68 721.961 2870.54 575.702 2858C58.3369 2813.66 12.7986 1967.53 324.573 1552.28C607.405 1175.58 1320.08 1755.94 1509.09 1324.46C1639.2 1027.44 1583.27 736.639 1352.27 509.073C1016.69 178.487 392.07 1151.11 167.749 736.891C96.8009 605.882 78.4047 510.233 95.6949 362.253C150.363 -105.625 828.048 2.35117 1280.21 134.435C1698.37 256.584 2090.33 435.43 2118.72 870.134C2143.35 1247.35 1897.91 1473.64 1575.85 1671.55C1299.57 1841.32 963.332 1575.41 760.457 1828.38C521.942 2125.78 1268.32 2585.29 944.831 2787.01Z" fill="#497174"/>
</g>
<defs>
<clipPath id="clip0_150_34">
<rect width="2420" height="2896.44" fill="white"/>
</clipPath>
</defs>
</svg>
